<svg width="1440" height="1024" viewBox="0 0 1440 1024" fill="none" xmlns="http://www.w3.org/2000/svg">
<g clip-path="url(#clip0_311_737)">
<g opacity="0.1" clip-path="url(#clip1_311_737)">
<path d="M1233.85 577.497L1169.78 561.641C1163.89 560.181 1157.92 563.779 1156.46 569.676L1153.82 580.354C1152.36 586.251 1155.96 592.215 1161.85 593.674L1225.92 609.53C1231.82 610.99 1237.78 607.392 1239.24 601.495L1241.88 590.817C1243.34 584.92 1239.75 578.956 1233.85 577.497Z" stroke="#00684A" stroke-width="11" stroke-linecap="round" stroke-linejoin="round"/>
<path d="M1220.64 630.886L1193.94 624.279C1188.04 622.82 1182.08 626.417 1180.62 632.315L1177.98 642.993C1176.52 648.89 1180.12 654.854 1186.01 656.313L1212.71 662.92C1218.61 664.379 1224.57 660.782 1226.03 654.884L1228.67 644.207C1230.13 638.309 1226.53 632.346 1220.64 630.886Z" stroke="#00684A" stroke-width="11" stroke-linecap="round" stroke-linejoin="round"/>
<path d="M1242.1 681.526L1268.53 574.747" stroke="#00684A" stroke-width="11" stroke-linecap="round" stroke-linejoin="round"/>
</g>
<g opacity="0.1" clip-path="url(#clip2_311_737)">
<path d="M397.486 49.0154L-98.7459 103.895C-101.464 104.198 -103.952 105.567 -105.662 107.702C-107.371 109.837 -108.164 112.564 -107.866 115.283L-54.3756 598.956C-54.0726 601.674 -52.7031 604.161 -50.568 605.871C-48.4329 607.581 -45.7066 608.374 -42.9875 608.075L0.520958 603.264L0.197146 600.336L-43.3113 605.147C-45.2538 605.36 -47.2013 604.793 -48.7266 603.572C-50.2519 602.35 -51.2304 600.574 -51.4474 598.632L-104.938 114.959C-105.15 113.016 -104.584 111.069 -103.362 109.543C-102.141 108.018 -100.364 107.04 -98.422 106.823L397.81 51.9434C399.754 51.7283 401.704 52.2934 403.231 53.5149C404.759 54.7363 405.74 56.514 405.958 58.4578L459.448 542.131C459.607 543.561 459.34 545.007 458.681 546.286C458.095 547.413 457.235 548.376 456.182 549.086C455.205 549.736 454.087 550.141 452.92 550.268L409.412 555.08L409.736 558.008L453.244 553.196C454.727 553.032 456.156 552.549 457.433 551.779C458.71 551.008 459.805 549.97 460.642 548.736C460.714 548.639 460.779 548.536 460.835 548.429C461.364 547.613 461.767 546.722 462.03 545.785C462.41 544.496 462.528 543.143 462.376 541.807L408.885 58.134C408.582 55.4138 407.21 52.9254 405.073 51.2156C402.935 49.5058 400.206 48.7145 397.486 49.0154Z" fill="#3F3D56"/>
<path d="M410.826 89.1443L-102.994 145.969L-102.67 148.9L411.15 92.0756L410.826 89.1443Z" fill="#3F3D56"/>
<path d="M285.482 171.689L37.3666 199.129C33.3122 199.577 29.2459 198.396 26.062 195.847C22.8782 193.297 20.8376 189.587 20.3892 185.532C19.9408 181.478 21.1214 177.412 23.6712 174.228C26.2209 171.044 29.9311 169.004 33.9854 168.555L282.101 141.116C286.156 140.667 290.222 141.848 293.406 144.397C296.59 146.947 298.63 150.657 299.079 154.712C299.527 158.766 298.346 162.832 295.797 166.016C293.247 169.2 289.537 171.241 285.482 171.689ZM34.2455 170.907C30.8149 171.286 27.6756 173.013 25.5181 175.707C23.3606 178.401 22.3616 181.842 22.741 185.272C23.1204 188.703 24.847 191.842 27.5411 194C30.2351 196.157 33.6759 197.156 37.1065 196.777L285.222 169.337C288.653 168.958 291.792 167.231 293.95 164.537C296.107 161.843 297.106 158.402 296.727 154.972C296.347 151.541 294.621 148.402 291.927 146.244C289.233 144.087 285.792 143.088 282.361 143.467L34.2455 170.907Z" fill="#3F3D56"/>
<path d="M372.009 378.269L-1.92889 419.623C-7.2295 420.204 -12.5438 418.658 -16.7059 415.324C-20.868 411.991 -23.5379 407.143 -24.13 401.844L-37.3947 281.902C-37.9749 276.601 -36.4287 271.287 -33.0956 267.125C-29.7624 262.963 -24.9144 260.293 -19.6151 259.7L354.323 218.346C359.623 217.766 364.937 219.312 369.1 222.645C373.262 225.978 375.932 230.826 376.524 236.126L389.788 356.068C390.369 361.368 388.822 366.683 385.489 370.845C382.156 375.007 377.308 377.677 372.009 378.269ZM-19.355 262.052C-24.0308 262.575 -28.3085 264.931 -31.2495 268.603C-34.1905 272.275 -35.5548 276.965 -35.0429 281.642L-21.7782 401.584C-21.2558 406.26 -18.8999 410.537 -15.2275 413.478C-11.555 416.419 -6.86598 417.784 -2.18898 417.272L371.749 375.917C376.424 375.395 380.702 373.039 383.643 369.366C386.584 365.694 387.948 361.005 387.437 356.328L374.172 236.386C373.649 231.71 371.294 227.432 367.621 224.491C363.949 221.55 359.26 220.186 354.583 220.698L-19.355 262.052Z" fill="#3F3D56"/>
<path d="M224.518 307.094L93.9925 321.529C91.4975 321.805 88.9951 321.079 87.0358 319.51C85.0765 317.941 83.8208 315.657 83.5449 313.162C83.269 310.668 83.9954 308.165 85.5645 306.206C87.1336 304.247 89.4168 302.991 91.9118 302.715L222.437 288.28C224.932 288.004 227.434 288.73 229.394 290.299C231.353 291.869 232.609 294.152 232.885 296.647C233.161 299.142 232.434 301.644 230.865 303.603C229.296 305.563 227.013 306.818 224.518 307.094Z" fill="#00684A"/>
<path d="M349.147 325.449L97.5037 353.279C95.0088 353.555 92.5064 352.828 90.5471 351.259C88.5878 349.69 87.332 347.407 87.0561 344.912C86.7802 342.417 87.5067 339.915 89.0758 337.955C90.6449 335.996 92.928 334.74 95.423 334.464L347.067 306.635C349.562 306.359 352.064 307.085 354.023 308.654C355.982 310.223 357.238 312.506 357.514 315.001C357.79 317.496 357.064 319.999 355.494 321.958C353.925 323.917 351.642 325.173 349.147 325.449Z" fill="#00684A"/>
<path d="M35.8138 370.219C55.2968 368.064 69.3443 350.523 67.1896 331.04C65.0349 311.557 47.4941 297.51 28.0111 299.664C8.52806 301.819 -5.51935 319.36 -3.36468 338.843C-1.21002 358.326 16.3308 372.373 35.8138 370.219Z" fill="#00684A"/>
<path d="M353.36 363.667L320.434 367.309C317.94 367.585 315.437 366.858 313.478 365.289C311.519 363.72 310.263 361.437 309.987 358.942C309.711 356.447 310.437 353.944 312.007 351.985C313.576 350.026 315.859 348.77 318.354 348.494L351.279 344.853C353.774 344.577 356.276 345.303 358.236 346.873C360.195 348.442 361.451 350.725 361.727 353.22C362.003 355.715 361.276 358.217 359.707 360.176C358.138 362.136 355.855 363.391 353.36 363.667Z" fill="white"/>
<path d="M353.36 363.667L320.434 367.309C317.94 367.585 315.437 366.858 313.478 365.289C311.519 363.72 310.263 361.437 309.987 358.942C309.711 356.447 310.437 353.944 312.007 351.985C313.576 350.026 315.859 348.77 318.354 348.494L351.279 344.853C353.774 344.577 356.276 345.303 358.236 346.873C360.195 348.442 361.451 350.725 361.727 353.22C362.003 355.715 361.276 358.217 359.707 360.176C358.138 362.136 355.855 363.391 353.36 363.667Z" fill="#CCCCCC"/>
<path d="M378.246 434.713L4.30837 476.068C-0.990277 476.661 -5.83735 479.331 -9.17023 483.493C-12.5031 487.655 -14.0498 492.968 -13.4712 498.269L-0.206581 618.211C0.386996 623.51 3.05738 628.357 7.2191 631.69C11.3808 635.022 16.6943 636.569 21.9946 635.991L395.932 594.636C401.232 594.044 406.08 591.375 409.413 587.212C412.746 583.05 414.292 577.736 413.712 572.435L400.447 452.493C399.855 447.193 397.186 442.345 393.023 439.012C388.861 435.678 383.547 434.132 378.246 434.713ZM411.36 572.695C411.873 577.372 410.51 582.062 407.569 585.735C404.627 589.408 400.349 591.763 395.672 592.284L21.7345 633.639C17.0576 634.15 12.3687 632.786 8.69638 629.845C5.02405 626.904 2.66808 622.627 2.14523 617.951L-11.1194 498.009C-11.6309 493.332 -10.2665 488.643 -7.32557 484.971C-4.38462 481.298 -0.107203 478.942 4.56846 478.419L378.506 437.065C383.183 436.551 387.873 437.915 391.546 440.856C395.219 443.798 397.574 448.076 398.095 452.753L411.36 572.695Z" fill="#3F3D56"/>
<path d="M248.446 523.461L117.921 537.896C115.426 538.172 112.923 537.445 110.964 535.876C109.005 534.307 107.749 532.024 107.473 529.529C107.197 527.034 107.924 524.532 109.493 522.572C111.062 520.613 113.345 519.357 115.84 519.081L246.366 504.646C248.86 504.37 251.363 505.097 253.322 506.666C255.281 508.235 256.537 510.518 256.813 513.013C257.089 515.508 256.362 518.01 254.793 519.97C253.224 521.929 250.941 523.185 248.446 523.461Z" fill="#00684A"/>
<path d="M373.076 541.815L121.432 569.645C118.937 569.921 116.435 569.195 114.475 567.626C112.516 566.056 111.26 563.773 110.984 561.278C110.709 558.783 111.435 556.281 113.004 554.322C114.573 552.362 116.856 551.107 119.351 550.831L370.995 523.001C373.49 522.725 375.992 523.452 377.951 525.021C379.911 526.59 381.167 528.873 381.443 531.368C381.718 533.863 380.992 536.365 379.423 538.324C377.854 540.284 375.571 541.54 373.076 541.815Z" fill="#00684A"/>
<path d="M59.7422 586.585C79.2252 584.43 93.2727 566.89 91.118 547.407C88.9633 527.924 71.4225 513.876 51.9395 516.031C32.4565 518.185 18.4091 535.726 20.5637 555.209C22.7184 574.692 40.2592 588.74 59.7422 586.585Z" fill="#00684A"/>
<path d="M377.288 580.034L344.363 583.675C341.868 583.951 339.365 583.225 337.406 581.655C335.447 580.086 334.191 577.803 333.915 575.308C333.639 572.813 334.366 570.311 335.935 568.352C337.504 566.392 339.787 565.137 342.282 564.861L375.207 561.219C377.702 560.943 380.205 561.67 382.164 563.239C384.123 564.808 385.379 567.091 385.655 569.586C385.931 572.081 385.204 574.584 383.635 576.543C382.066 578.502 379.783 579.758 377.288 580.034Z" fill="#CCCCCC"/>
</g>
<g opacity="0.1" clip-path="url(#clip3_311_737)">
<path d="M953.807 439.196L1199.57 393.934C1200.87 393.692 1202.02 392.943 1202.78 391.852C1203.53 390.76 1203.82 389.415 1203.58 388.111L1195.05 341.79L1193.08 342.152L1201.61 388.473C1201.75 389.255 1201.58 390.063 1201.13 390.718C1200.68 391.372 1199.99 391.822 1199.2 391.967L953.445 437.229C952.663 437.373 951.855 437.2 951.2 436.748C950.545 436.297 950.096 435.605 949.951 434.822L941.36 388.178L939.394 388.54L947.984 435.185C948.226 436.488 948.975 437.643 950.066 438.395C951.158 439.147 952.503 439.435 953.807 439.196Z" fill="#3F3D56"/>
<path d="M855.1 403.383L1432.61 297.02L1432.97 298.987L855.462 405.35L855.1 403.383Z" fill="#3F3D56"/>
<path d="M1435.83 314.775C1426.49 316.496 1417.52 310.317 1415.8 300.973C1414.08 291.63 1420.26 282.661 1429.6 280.94C1438.95 279.219 1447.91 285.399 1449.64 294.742C1451.36 304.085 1445.18 313.054 1435.83 314.775Z" fill="#00684A"/>
<path d="M1263.92 346.437C1254.58 348.158 1245.61 341.979 1243.89 332.636C1242.17 323.292 1248.35 314.323 1257.69 312.602C1267.03 310.882 1276 317.061 1277.72 326.404C1279.44 335.747 1273.26 344.717 1263.92 346.437Z" fill="#00684A"/>
<path d="M1156.41 417.65C1147.07 419.371 1138.1 413.191 1136.38 403.848C1134.65 394.505 1140.83 385.536 1150.18 383.815C1159.52 382.094 1168.49 388.273 1170.21 397.617C1171.93 406.96 1165.75 415.929 1156.41 417.65Z" fill="#3F3D56"/>
<path d="M1067.71 433.985C1058.37 435.706 1049.4 429.527 1047.68 420.184C1045.96 410.84 1052.14 401.871 1061.48 400.15C1070.83 398.43 1079.79 404.609 1081.52 413.952C1083.24 423.295 1077.06 432.264 1067.71 433.985Z" fill="#CCCCCC"/>
<path d="M1101.54 376.345C1092.19 378.065 1083.22 371.886 1081.5 362.543C1079.78 353.2 1085.96 344.231 1095.3 342.51C1104.65 340.789 1113.62 346.968 1115.34 356.311C1117.06 365.655 1110.88 374.624 1101.54 376.345Z" fill="#00684A"/>
<path d="M860.687 420.703C851.344 422.424 842.375 416.244 840.654 406.901C838.933 397.558 845.112 388.589 854.456 386.868C863.799 385.147 872.768 391.326 874.489 400.67C876.21 410.013 870.03 418.982 860.687 420.703Z" fill="#00684A"/>
<path d="M943.524 405.446C934.181 407.167 925.212 400.988 923.491 391.645C921.77 382.301 927.949 373.332 937.292 371.612C946.636 369.891 955.605 376.07 957.326 385.413C959.047 394.756 952.867 403.726 943.524 405.446Z" fill="#00684A"/>
<path d="M1100.17 198.248L1131.55 192.469L1135.53 214.095L1104.15 219.875L1100.17 198.248Z" fill="#3F3D56"/>
<path d="M1388.25 145.191L1419.63 139.412L1423.61 161.038L1392.23 166.817L1388.25 145.191Z" fill="#00684A"/>
<path d="M1281.97 164.766L1313.34 158.987L1317.33 180.613L1285.95 186.392L1281.97 164.766Z" fill="#CCCCCC"/>
<path d="M1380.47 308.657C1380.73 308.609 1380.96 308.459 1381.11 308.24C1381.26 308.022 1381.32 307.753 1381.27 307.492L1372.33 258.946C1372.09 257.643 1371.34 256.488 1370.25 255.736C1369.15 254.984 1367.81 254.696 1366.51 254.935L1318.64 263.751C1318.38 263.799 1318.14 263.949 1317.99 264.167C1317.84 264.386 1317.79 264.655 1317.83 264.916C1317.88 265.176 1318.03 265.407 1318.25 265.558C1318.47 265.708 1318.74 265.766 1319 265.718L1366.87 256.901C1367.65 256.758 1368.46 256.931 1369.11 257.383C1369.77 257.834 1370.22 258.526 1370.36 259.308L1379.3 307.854C1379.35 308.115 1379.5 308.346 1379.72 308.497C1379.94 308.647 1380.21 308.705 1380.47 308.657Z" fill="#3F3D56"/>
<path d="M1319.62 281.699C1310.27 283.419 1301.3 277.24 1299.58 267.897C1297.86 258.554 1304.04 249.584 1313.38 247.864C1322.73 246.143 1331.7 252.322 1333.42 261.665C1335.14 271.009 1328.96 279.978 1319.62 281.699Z" fill="#E6E6E6"/>
<path d="M1001.65 377.408L1003.62 377.046L994.68 328.5C994.439 327.196 993.69 326.042 992.598 325.29C991.507 324.538 990.161 324.249 988.857 324.488L940.988 333.304L941.35 335.271L989.219 326.455C990.002 326.312 990.809 326.485 991.464 326.936C992.119 327.387 992.568 328.08 992.713 328.862L1001.65 377.408Z" fill="#3F3D56"/>
<path d="M941.967 351.252C932.624 352.973 923.655 346.794 921.934 337.45C920.213 328.107 926.392 319.138 935.736 317.417C945.079 315.696 954.048 321.875 955.769 331.219C957.49 340.562 951.31 349.531 941.967 351.252Z" fill="#E6E6E6"/>
</g>
<path d="M647.527 779.221C648.038 779.873 647.923 780.816 647.27 781.326L636.638 789.646C635.986 790.156 635.043 790.041 634.533 789.389C634.022 788.736 634.137 787.793 634.79 787.283L644.24 779.888L636.845 770.437C636.335 769.785 636.45 768.842 637.102 768.332C637.755 767.821 638.697 767.936 639.208 768.589L647.527 779.221ZM301.182 736.511L304.159 736.874L303.795 739.852L300.818 739.489L301.182 736.511ZM310.113 737.601L316.067 738.328L315.704 741.306L309.75 740.579L310.113 737.601ZM322.022 739.054L327.976 739.781L327.612 742.759L321.658 742.032L322.022 739.054ZM333.93 740.508L339.884 741.234L339.521 744.212L333.567 743.485L333.93 740.508ZM345.839 741.961L351.793 742.687L351.429 745.665L345.475 744.939L345.839 741.961ZM357.747 743.414L363.701 744.141L363.338 747.119L357.384 746.392L357.747 743.414ZM369.655 744.867L375.61 745.594L375.246 748.572L369.292 747.845L369.655 744.867ZM381.564 746.321L387.518 747.047L387.155 750.025L381.201 749.299L381.564 746.321ZM393.472 747.774L399.427 748.501L399.063 751.478L393.109 750.752L393.472 747.774ZM405.381 749.227L411.335 749.954L410.972 752.932L405.017 752.205L405.381 749.227ZM417.289 750.68L423.244 751.407L422.88 754.385L416.926 753.658L417.289 750.68ZM429.198 752.134L435.152 752.86L434.789 755.838L428.834 755.112L429.198 752.134ZM441.106 753.587L447.061 754.314L446.697 757.292L440.743 756.565L441.106 753.587ZM453.015 755.04L458.969 755.767L458.606 758.745L452.651 758.018L453.015 755.04ZM464.923 756.494L470.878 757.22L470.514 760.198L464.56 759.471L464.923 756.494ZM476.832 757.947L482.786 758.674L482.423 761.651L476.468 760.925L476.832 757.947ZM488.74 759.4L494.694 760.127L494.331 763.105L488.377 762.378L488.74 759.4ZM500.649 760.853L506.603 761.58L506.24 764.558L500.285 763.831L500.649 760.853ZM512.557 762.307L518.511 763.033L518.148 766.011L512.194 765.285L512.557 762.307ZM524.466 763.76L530.42 764.487L530.056 767.465L524.102 766.738L524.466 763.76ZM536.374 765.213L542.328 765.94L541.965 768.918L536.011 768.191L536.374 765.213ZM548.283 766.667L554.237 767.393L553.873 770.371L547.919 769.644L548.283 766.667ZM560.191 768.12L566.145 768.846L565.782 771.824L559.828 771.098L560.191 768.12ZM572.1 769.573L578.054 770.3L577.69 773.278L571.736 772.551L572.1 769.573ZM584.008 771.026L589.962 771.753L589.599 774.731L583.645 774.004L584.008 771.026ZM595.917 772.48L601.871 773.206L601.507 776.184L595.553 775.458L595.917 772.48ZM607.825 773.933L613.779 774.66L613.416 777.637L607.462 776.911L607.825 773.933ZM619.733 775.386L625.688 776.113L625.324 779.091L619.37 778.364L619.733 775.386ZM631.642 776.839L637.596 777.566L637.233 780.544L631.279 779.817L631.642 776.839ZM643.55 778.293L646.528 778.656L646.164 781.634L643.187 781.271L643.55 778.293ZM648.709 778.296C649.73 779.601 649.499 781.487 648.195 782.508L626.931 799.146C625.626 800.167 623.74 799.937 622.719 798.632C621.698 797.327 621.928 795.442 623.233 794.421L642.134 779.631L627.345 760.73C626.324 759.425 626.554 757.539 627.859 756.518C629.164 755.497 631.049 755.727 632.07 757.032L648.709 778.296ZM301.363 735.022L304.341 735.385L303.614 741.341L300.637 740.978L301.363 735.022ZM310.295 736.112L316.249 736.839L315.522 742.795L309.568 742.068L310.295 736.112ZM322.203 737.565L328.157 738.292L327.431 744.248L321.476 743.521L322.203 737.565ZM334.112 739.019L340.066 739.745L339.339 745.701L333.385 744.974L334.112 739.019ZM346.02 740.472L351.974 741.199L351.248 747.154L345.293 746.428L346.02 740.472ZM357.929 741.925L363.883 742.652L363.156 748.608L357.202 747.881L357.929 741.925ZM369.837 743.378L375.791 744.105L375.065 750.061L369.11 749.334L369.837 743.378ZM381.746 744.832L387.7 745.558L386.973 751.514L381.019 750.788L381.746 744.832ZM393.654 746.285L399.608 747.012L398.882 752.967L392.927 752.241L393.654 746.285ZM405.563 747.738L411.517 748.465L410.79 754.421L404.836 753.694L405.563 747.738ZM417.471 749.192L423.425 749.918L422.698 755.874L416.744 755.147L417.471 749.192ZM429.38 750.645L435.334 751.371L434.607 757.327L428.653 756.601L429.38 750.645ZM441.288 752.098L447.242 752.825L446.515 758.781L440.561 758.054L441.288 752.098ZM453.197 753.551L459.151 754.278L458.424 760.234L452.47 759.507L453.197 753.551ZM465.105 755.005L471.059 755.731L470.332 761.687L464.378 760.96L465.105 755.005ZM477.013 756.458L482.968 757.185L482.241 763.14L476.287 762.414L477.013 756.458ZM488.922 757.911L494.876 758.638L494.149 764.594L488.195 763.867L488.922 757.911ZM500.83 759.364L506.785 760.091L506.058 766.047L500.104 765.32L500.83 759.364ZM512.739 760.818L518.693 761.544L517.966 767.5L512.012 766.774L512.739 760.818ZM524.647 762.271L530.602 762.998L529.875 768.953L523.921 768.227L524.647 762.271ZM536.556 763.724L542.51 764.451L541.783 770.407L535.829 769.68L536.556 763.724ZM548.464 765.178L554.419 765.904L553.692 771.86L547.737 771.133L548.464 765.178ZM560.373 766.631L566.327 767.357L565.6 773.313L559.646 772.587L560.373 766.631ZM572.281 768.084L578.236 768.811L577.509 774.767L571.554 774.04L572.281 768.084ZM584.19 769.537L590.144 770.264L589.417 776.22L583.463 775.493L584.19 769.537ZM596.098 770.991L602.052 771.717L601.326 777.673L595.371 776.946L596.098 770.991ZM608.007 772.444L613.961 773.171L613.234 779.126L607.28 778.4L608.007 772.444ZM619.915 773.897L625.869 774.624L625.143 780.58L619.188 779.853L619.915 773.897ZM631.824 775.35L637.778 776.077L637.051 782.033L631.097 781.306L631.824 775.35ZM643.732 776.804L646.709 777.167L645.982 783.123L643.005 782.76L643.732 776.804Z" fill="#00684A" fill-opacity="0.1"/>
</g>
<defs>
<clipPath id="clip0_311_737">
<rect width="1440" height="1024" fill="white"/>
</clipPath>
<clipPath id="clip1_311_737">
<rect width="132" height="132" fill="white" transform="translate(1153.71 535) rotate(13.9008)"/>
</clipPath>
<clipPath id="clip2_311_737">
<rect width="775.235" height="658.085" fill="white" transform="translate(-109 105.029) rotate(-6.31081)"/>
</clipPath>
<clipPath id="clip3_311_737">
<rect width="973.461" height="587.025" fill="white" transform="matrix(-0.983459 0.181129 0.181129 0.983459 1769.36 75)"/>
</clipPath>
</defs>
</svg>
